<svg width="48" height="48" viewBox="0 0 48 48" fill="none" xmlns="http://www.w3.org/2000/svg" role="img" aria-label="zebrafish">
  <defs>
    <mask id="zebrafish-mark" maskUnits="userSpaceOnUse" x="0" y="0" width="48" height="48">
      <rect width="48" height="48" fill="black"></rect>
      <path d="M40 24C40 17.9 33.3 13 25 13C16.7 13 10 17.9 10 24C10 30.1 16.7 35 25 35C33.3 35 40 30.1 40 24Z" fill="white"></path>
      <path d="M12.5 24L3 15.5L6 24L3 32.5L12.5 24Z" fill="white"></path>
      <g fill="black">
        <rect x="17.4" y="9" width="2.6" height="30" rx="1.3" transform="rotate(9 18.7 24)"></rect>
        <rect x="24.4" y="9" width="2.6" height="30" rx="1.3" transform="rotate(9 25.7 24)"></rect>
        <rect x="31.4" y="9" width="2.6" height="30" rx="1.3" transform="rotate(9 32.7 24)"></rect>
      </g>
      <circle cx="34.2" cy="20.8" r="1.7" fill="black"></circle>
    </mask>
  </defs>
  <rect width="48" height="48" fill="#15181c" mask="url(#zebrafish-mark)"></rect>
</svg>
